<?xml version="1.0" standalone="no"?>
<!DOCTYPE svg PUBLIC "-//W3C//DTD SVG 20010904//EN"
 "http://www.w3.org/TR/2001/REC-SVG-20010904/DTD/svg10.dtd">
<svg version="1.0" xmlns="http://www.w3.org/2000/svg"
 width="2400.000000pt" height="2400.000000pt" viewBox="0 0 600.000000 600.000000"
 preserveAspectRatio="xMidYMid meet">

<g transform="translate(0.000000,459.000000) scale(0.100000,-0.100000)"
fill="#000000" stroke="none">
<path d="M1690 2869 c0 -132 3 -170 13 -167 8 3 13 44 17 141 3 75 10 141 16
147 7 7 403 9 1280 8 l1269 -3 3 -148 c2 -130 5 -148 18 -143 9 3 18 6 20 6 2
0 4 72 4 159 0 136 -2 160 -16 165 -9 3 -603 6 -1320 6 l-1304 0 0 -171z"/>
<path d="M1250 2465 l0 -25 140 0 140 0 0 25 0 25 -140 0 -140 0 0 -25z"/>
<path d="M2043 2476 c-38 -14 -89 -60 -109 -98 -19 -36 -18 -117 1 -156 51
-100 198 -133 284 -64 33 27 36 33 36 83 0 47 -2 54 -20 54 -16 0 -21 -8 -23
-40 -4 -51 -24 -72 -73 -80 -55 -10 -94 2 -134 40 -31 29 -35 38 -35 83 0 43
5 57 30 85 50 58 108 65 188 25 18 -9 26 -9 38 3 13 14 12 17 -6 34 -25 23
-86 45 -120 44 -14 -1 -40 -7 -57 -13z"/>
<path d="M2370 2465 l0 -25 125 0 125 0 0 25 0 25 -125 0 -125 0 0 -25z"/>
<path d="M2684 2476 c-12 -31 7 -36 147 -36 140 0 140 0 137 23 -3 21 -6 22
-141 25 -114 2 -138 0 -143 -12z"/>
<path d="M3050 2306 l0 -186 25 0 c22 0 25 4 25 39 0 44 8 52 70 71 25 7 50
17 55 21 6 4 25 10 43 14 l32 7 0 -76 c0 -74 1 -76 25 -76 l25 0 0 186 0 185
-22 -3 c-21 -3 -23 -9 -26 -80 -2 -43 -4 -78 -6 -78 -2 0 -41 -13 -87 -30 -46
-16 -89 -30 -96 -30 -9 0 -13 31 -15 108 -3 102 -4 107 -25 110 l-23 3 0 -185z"/>
<path d="M3467 2483 c-4 -3 -7 -15 -7 -25 0 -17 11 -18 130 -18 l130 0 0 25 0
25 -123 0 c-68 0 -127 -3 -130 -7z"/>
<path d="M3820 2305 l0 -185 25 0 c22 0 24 4 27 58 3 48 6 57 23 60 15 2 26
-9 44 -42 24 -47 68 -76 115 -76 21 0 26 5 26 25 0 20 -5 25 -24 25 -28 0 -76
35 -76 56 0 8 10 14 25 14 15 0 38 14 60 35 30 30 35 42 35 81 0 94 -57 134
-192 134 l-88 0 0 -185z m198 115 c26 -16 32 -26 32 -54 0 -56 -30 -76 -112
-76 l-68 0 0 68 c0 38 3 72 7 75 15 15 109 7 141 -13z"/>
<path d="M4318 2333 l-3 -158 -75 -5 c-68 -5 -75 -7 -78 -27 -3 -23 -1 -23 97
-23 l101 0 0 185 c0 178 -1 185 -20 185 -18 0 -20 -8 -22 -157z"/>
<path d="M4445 2469 c4 -11 32 -64 63 -117 49 -86 56 -105 60 -164 4 -64 6
-68 28 -68 23 0 24 3 24 60 0 62 -2 58 91 223 22 38 39 73 39 78 0 5 -11 9
-25 9 -20 0 -30 -10 -51 -52 -15 -29 -38 -70 -51 -92 -32 -49 -36 -45 -115
107 -15 27 -26 37 -45 37 -20 0 -23 -4 -18 -21z"/>
<path d="M1649 2414 c-38 -24 -61 -70 -61 -116 1 -47 22 -82 65 -108 84 -52
187 13 187 118 0 34 -6 49 -33 78 -28 31 -41 37 -83 41 -34 2 -57 -1 -75 -13z
m115 -55 c23 -18 27 -28 24 -62 -3 -34 -8 -44 -36 -60 -32 -19 -36 -19 -68 -3
-59 28 -65 93 -12 130 31 22 60 20 92 -5z"/>
<path d="M1370 2251 l0 -131 25 0 26 0 -3 128 c-3 123 -4 127 -25 130 -23 3
-23 3 -23 -127z"/>
<path d="M2800 2250 l0 -130 25 0 25 0 0 130 0 130 -25 0 -25 0 0 -130z"/>
<path d="M2377 2324 c-4 -4 -7 -16 -7 -26 0 -16 10 -18 111 -18 109 0 110 0
107 23 -3 21 -8 22 -104 25 -55 1 -103 0 -107 -4z"/>
<path d="M3473 2324 c-7 -3 -13 -14 -13 -25 0 -18 8 -19 116 -19 114 0 115 0
112 23 -3 21 -8 22 -103 24 -55 1 -106 -1 -112 -3z"/>
<path d="M2377 2164 c-4 -4 -7 -16 -7 -26 0 -16 10 -18 126 -18 124 0 125 0
122 23 -3 21 -7 22 -119 25 -63 1 -118 -1 -122 -4z"/>
<path d="M3473 2163 c-7 -2 -13 -13 -13 -24 0 -18 9 -19 130 -19 121 0 130 1
130 19 0 10 -7 22 -16 25 -19 7 -213 7 -231 -1z"/>
<path d="M1690 1700 l0 -170 1308 0 c719 0 1313 4 1320 8 9 7 12 47 10 168 -3
141 -5 159 -20 162 -16 3 -18 -11 -20 -145 l-3 -148 -1274 -3 c-1013 -2 -1276
0 -1283 10 -4 7 -8 75 -8 151 0 115 -2 137 -15 137 -13 0 -15 -26 -15 -170z"/>
</g>
</svg>
